<?xml version="1.0" encoding="UTF-8" standalone="no"?>
<!DOCTYPE svg PUBLIC "-//W3C//DTD SVG 1.1//EN" "http://www.w3.org/Graphics/SVG/1.1/DTD/svg11.dtd">
<svg width="100%" height="100%" viewBox="0 0 1280 120" version="1.1" xmlns="http://www.w3.org/2000/svg" xmlns:xlink="http://www.w3.org/1999/xlink" xml:space="preserve" xmlns:serif="http://www.serif.com/" style="fill-rule:evenodd;clip-rule:evenodd;stroke-linejoin:round;stroke-miterlimit:2;">
    <g id="border-01" transform="matrix(1,0,0,0.24,0,0)">
        <rect x="0" y="0" width="1280" height="500" style="fill:none;"/>
        <clipPath id="_clip1">
            <rect x="0" y="0" width="1280" height="500"/>
        </clipPath>
        <g clip-path="url(#_clip1)">
            <g transform="matrix(1,0,0,8.6273,0,-8208.48)">
                <g transform="matrix(1,0,0,0.482963,0,12.5593)">
                    <path d="M-170.549,2071.47C-197.327,2076.05 -222.784,2058.02 -227.361,2031.25C-231.939,2004.47 -213.915,1979.01 -187.137,1974.43C-85.799,1957.11 22.977,1977.1 128.95,1973.76C255.901,1969.74 418.732,1948.47 579.97,1949.77C689.974,1950.65 1254.07,1994.07 1391.53,1958.03C1417.81,1951.14 1444.73,1966.88 1451.62,1993.16C1458.52,2019.43 1442.78,2046.36 1416.5,2053.25C1274.68,2090.44 692.671,2049.12 579.179,2048.21C419.332,2046.92 257.914,2068.17 132.059,2072.15C30.604,2075.36 -73.533,2054.89 -170.549,2071.47Z" style="fill:rgb(142,199,210);"/>
                </g>
                <g transform="matrix(1,0,0,0.482963,0,24.4072)">
                    <path d="M-230.464,2059.82C-257.63,2059.96 -279.798,2038.02 -279.937,2010.85C-280.075,1983.69 -258.132,1961.52 -230.966,1961.38C-230.966,1961.38 -6.29,1960.24 112.723,1961.38C266.004,1962.86 427.621,1945.94 580.809,1949.78C684.27,1952.38 788.498,1966.59 891.827,1973.42C1169.06,1991.76 1354.21,1989.48 1354.21,1989.48C1381.37,1989.14 1403.7,2010.92 1404.04,2038.08C1404.38,2065.25 1382.6,2087.58 1355.44,2087.92C1355.44,2087.92 1167.19,2090.3 885.33,2071.65C783.336,2064.91 680.465,2050.76 578.341,2048.2C425.65,2044.37 264.559,2061.29 111.775,2059.82C-6.736,2058.68 -230.464,2059.82 -230.464,2059.82Z" style="fill:rgb(13,106,135);"/>
                </g>
                <g transform="matrix(1,0,0,0.482963,0,37.6004)">
                    <path d="M-236.996,2046.64C-263.94,2043.17 -283.001,2018.48 -279.535,1991.54C-276.069,1964.59 -251.379,1945.53 -224.435,1949C-224.435,1949 -25.582,1974.64 131.615,1971.39C285.457,1968.21 392.26,1958.41 546.035,1962.27C649.171,1964.86 847.302,1982.3 950.388,1987.71C1247.29,2003.31 1420.25,1958.01 1420.25,1958.01C1446.51,1951.05 1473.48,1966.71 1480.45,1992.97C1487.42,2019.22 1471.76,2046.2 1445.5,2053.17C1445.5,2053.17 1261.39,2102.63 945.226,2086.02C842.825,2080.65 646.017,2063.25 543.567,2060.68C391.463,2056.87 285.822,2066.66 133.652,2069.81C-29.986,2073.2 -236.996,2046.64 -236.996,2046.64Z" style="fill:rgb(0,81,105);"/>
                </g>
            </g>
        </g>
    </g>
</svg>
