<svg xmlns="http://www.w3.org/2000/svg" xmlns:xlink="http://www.w3.org/1999/xlink" viewBox="0,0,256,256" width="30px" height="30px"><g fill="#ffffff" fill-rule="nonzero" stroke="none" stroke-width="1" stroke-linecap="butt" stroke-linejoin="miter" stroke-miterlimit="10" stroke-dasharray="" stroke-dashoffset="0" font-family="none" font-weight="none" font-size="none" text-anchor="none" style="mix-blend-mode: normal"><g transform="scale(8.53333,8.53333)"><path d="M15.00781,4c-0.39483,-0.00302 -0.75447,0.22654 -0.91797,0.58594c-4.93009,10.84619 -11.8418,18.75586 -11.8418,18.75586c-0.25802,0.29525 -0.3197,0.71404 -0.15776,1.07114c0.16194,0.3571 0.51761,0.58663 0.90972,0.58706h7.9082c0.01238,-0.00042 0.02475,-0.00107 0.03711,-0.00195c0.39788,0.0219 0.77079,-0.19448 0.94922,-0.55078c0,0 1.85319,-3.72763 3.16211,-8.77148c1.51554,4.86676 3.77601,8.35956 4.00781,8.71094c0.14175,0.33727 0.45636,0.57023 0.82031,0.60742c0.02533,0.00227 0.05074,0.00357 0.07617,0.00391c0.01301,0.00091 0.02603,0.00156 0.03906,0.00195c0.00586,0.00005 0.01172,0.00005 0.01758,0h6.98242c0.3816,-0.00038 0.72973,-0.21789 0.89739,-0.56069c0.16766,-0.3428 0.12564,-0.75113 -0.10833,-1.05259c0,0 -1.71094,-2.21061 -4.0293,-5.62109l0.16016,-0.37109c0.18214,-0.42459 0.04974,-0.91869 -0.32031,-1.19531l-1.74414,-1.30859c-1.9543,-3.03201 -4.10139,-6.6188 -5.96094,-10.33789c-0.16817,-0.33628 -0.51074,-0.54982 -0.88672,-0.55273zM16.62109,13.4668l3.78125,2.83594c0.08156,0.08744 0.17814,0.15954 0.28516,0.21289l0.99609,0.74805l-0.1582,0.63477l-1.63672,3.82031c-0.90224,-1.54 -2.23308,-4.1908 -3.26758,-8.25195z"></path></g></g></svg>