<svg xmlns="http://www.w3.org/2000/svg" xmlns:xlink="http://www.w3.org/1999/xlink" viewBox="0,0,256,256" width="30px" height="30px"><g fill="#ffffff" fill-rule="nonzero" stroke="none" stroke-width="1" stroke-linecap="butt" stroke-linejoin="miter" stroke-miterlimit="10" stroke-dasharray="" stroke-dashoffset="0" font-family="none" font-weight="none" font-size="none" text-anchor="none" style="mix-blend-mode: normal"><g transform="scale(8.53333,8.53333)"><path d="M6.86133,2.00977c-0.86412,0.09082 -1.75297,0.73633 -2.44922,1.43945c-1.115,1.125 -2.04223,2.77236 -0.86523,3.94336c4.10186,4.08461 5.75557,3.90149 6.74219,3.23633c0.7567,0.70618 1.50568,1.39527 2.34375,1.97266c1.18896,0.81913 2.61042,1.39844 4.36719,1.39844c2.10918,0 3.45448,-0.95453 4.40039,-1.72461c0.94591,-0.77008 1.4599,-1.27539 2.59961,-1.27539c0.75187,0 1.17524,0.28641 1.50586,0.69727c0.33062,0.41086 0.49414,0.99326 0.49414,1.30273c0,1.65081 -0.93205,2.63638 -1.35156,3h-19.64844c-1.105,0 -2,0.895 -2,2v6c0,1.105 0.895,2 2,2h20c1.105,0 2,-0.895 2,-2v-6c0,-0.44839 -0.15338,-0.85794 -0.40234,-1.19141c0.66411,-0.80893 1.40234,-2.08023 1.40234,-3.80859c0,-0.83652 -0.28966,-1.754 -0.93555,-2.55664c-0.64588,-0.80264 -1.72232,-1.44336 -3.06445,-1.44336c-1.8163,0 -2.96474,0.99469 -3.86133,1.72461c-0.89659,0.72992 -1.57385,1.27539 -3.13867,1.27539c-1.34223,0 -2.27063,-0.38426 -3.23242,-1.04687c-0.65962,-0.45444 -1.34603,-1.07958 -2.07422,-1.75391c0.61681,-0.98911 0.6538,-2.66151 -3.34961,-6.64648c-0.45375,-0.45112 -0.96395,-0.59746 -1.48242,-0.54297zM8,6c0.552,0 1,0.448 1,1c0,0.552 -0.448,1 -1,1c-0.552,0 -1,-0.448 -1,-1c0,-0.552 0.448,-1 1,-1zM7,18c0.552,0 1,0.447 1,1v4c0,0.553 -0.448,1 -1,1c-0.552,0 -1,-0.447 -1,-1v-4c0,-0.553 0.448,-1 1,-1zM11,18c0.552,0 1,0.447 1,1v4c0,0.553 -0.448,1 -1,1c-0.552,0 -1,-0.447 -1,-1v-4c0,-0.553 0.448,-1 1,-1zM18,18h5c0.552,0 1,0.447 1,1c0,0.553 -0.448,1 -1,1h-5c-0.552,0 -1,-0.447 -1,-1c0,-0.553 0.448,-1 1,-1zM18,22c0.552,0 1,0.448 1,1c0,0.552 -0.448,1 -1,1c-0.552,0 -1,-0.448 -1,-1c0,-0.552 0.448,-1 1,-1zM23,22c0.552,0 1,0.448 1,1c0,0.552 -0.448,1 -1,1c-0.552,0 -1,-0.448 -1,-1c0,-0.552 0.448,-1 1,-1z"></path></g></g></svg>