<svg xmlns="http://www.w3.org/2000/svg"
    xmlns:xlink="http://www.w3.org/1999/xlink" viewBox="0,0,256,256" width="30px" height="30px">
    <g fill="#fff" fill-rule="nonzero" stroke="none" stroke-width="1" stroke-linecap="butt" stroke-linejoin="miter" stroke-miterlimit="10" stroke-dasharray="" stroke-dashoffset="0" font-family="none" font-weight="none" font-size="none" text-anchor="none" style="mix-blend-mode: normal">
        <g transform="scale(8.53333,8.53333)">
            <path d="M15,5c-0.36064,-0.0051 -0.69608,0.18438 -0.87789,0.49587c-0.18181,0.3115 -0.18181,0.69676 0,1.00825c0.18181,0.3115 0.51725,0.50097 0.87789,0.49587h2.35938l3.6875,7.99023c-1.23401,0.91284 -2.04687,2.36631 -2.04687,4.00977c0,2.74958 2.25042,5 5,5c2.74958,0 5,-2.25042 5,-5c0,-2.74958 -2.25042,-5 -5,-5c-0.39319,0 -0.77101,0.05761 -1.13867,0.14453l-1.91406,-4.14453h1.05273v-3h-1.5c-0.30425,0 -0.58574,0.09218 -0.82227,0.24805l-0.50195,-1.08594c-0.32578,-0.70752 -1.03837,-1.16211 -1.81641,-1.16211zM5.5,10c-0.65188,0 -1.20151,0.41875 -1.4082,1h-2.0918c-0.36064,-0.0051 -0.69608,0.18438 -0.87789,0.49587c-0.18181,0.3115 -0.18181,0.69676 0,1.00825c0.18181,0.3115 0.51725,0.50097 0.87789,0.49587h3h0.67383l-0.29102,1.02344c-0.12721,-0.00991 -0.25298,-0.02344 -0.38281,-0.02344c-2.757,0 -5,2.243 -5,5c0,2.757 2.243,5 5,5c2.41436,0 4.4336,-1.7209 4.89844,-4h4.04883h0.05273c0.01562,0.00037 0.03125,0.00037 0.04688,0h0.95313h0.35938c0.953,0 1.77394,-0.67242 1.96094,-1.60742l0.67969,-3.39258h-5.13281l-1.14258,-2h1.27539h6l-0.53125,-1.20703c-0.479,-1.089 -1.55609,-1.79297 -2.74609,-1.79297h-3.72266c-0.62756,0 -1.18026,0.29422 -1.54687,0.74609l-4.70703,-0.72656l-0.00586,0.00586c-0.079,-0.013 -0.15723,-0.02539 -0.24023,-0.02539zM7.75391,13h1.66406l2.85742,5h-5.94922l0.57031,-2h2.07813c-0.44508,-0.5884 -1.01716,-1.07611 -1.67187,-1.42383zM24,16c1.6687,0 3,1.3313 3,3c0,1.6687 -1.3313,3 -3,3c-1.6687,0 -3,-1.3313 -3,-3c0,-0.84897 0.34795,-1.60697 0.90625,-2.15039l1.18555,2.57031c0.23192,0.50159 0.82654,0.7202 1.32813,0.48828c0.50159,-0.23192 0.7202,-0.82654 0.48828,-1.32812l-1.17773,-2.55273c0.09033,-0.00802 0.17696,-0.02734 0.26953,-0.02734zM4.8125,16.01953l-0.73047,2.55664c-0.09327,0.19857 -0.11867,0.4223 -0.07227,0.63672c0.05063,0.27002 0.21011,0.50732 0.441,0.6562c0.23089,0.14888 0.51285,0.19622 0.7797,0.13091h2.58594c-0.41427,1.16125 -1.5148,2 -2.81641,2c-1.654,0 -3,-1.346 -3,-3c0,-1.58974 1.24727,-2.88145 2.8125,-2.98047z"></path>
        </g>
    </g>
</svg>
