<svg id="Layer_1" data-name="Layer 1" xmlns="http://www.w3.org/2000/svg" viewBox="0 0 2000 1000"><defs><style>.cls-1{fill:#e36f25;}</style></defs><path class="cls-1" d="M436.5,295.21c0,29.13-14,57.19-49.09,72.83,44.24,13.49,60.42,60.43,60.42,84.17,0,84.16-63.12,111.14-141.35,111.14H127.36V185.69H306.48C380.93,185.69,436.5,219.14,436.5,295.21Zm-239,42.08h109c44.78,0,59.35-18.88,59.35-40.46,0-17.27-14-46.4-59.35-46.4h-109Zm0,159.7h109c29.13,0,70.67-9.71,70.67-45.32,0-34-41.54-51.8-70.67-51.8h-109Z"/><path class="cls-1" d="M809.47,355.33c-1,86.74-54.15,173.48-172,173.48S464.91,444,464.91,355.81,521.46,179,637.43,179C752.92,179,810.43,267.63,809.47,355.33Zm-282.26,1.44c1.44,55.11,31.15,114.06,110.22,114.06S746.22,411.4,747.17,356.29c1-56.55-30.67-119.8-109.74-119.8S525.77,300.22,527.21,356.77Z"/><path class="cls-1" d="M1150.21,186.17V378.34c0,99.19-60.87,150-145.21,150-80.51,0-149-48.88-149-150V186.17h62.78V378.34c0,60.38,34.5,92.49,86.74,92.49s82-35,82-92.49V186.17Z"/><path class="cls-1" d="M1507.72,479c-34.51,34-79.08,49.84-127.48,49.84-124.6,0-177.31-85.78-177.79-173C1202,268.12,1259,179,1380.24,179c45.53,0,88.66,17.25,123.16,51.28L1461.23,271c-22-21.56-51.76-31.63-81-31.63-81,0-116,60.38-115.49,116.45.48,55.59,32.59,113.58,115.49,113.58,29.23,0,62.3-12,84.35-34Z"/><path class="cls-1" d="M1802.05,563.35V410.86H1616.69V563.35h-71.12V186.17h71.12v159h185.36v-159h70.59V563.35Z"/><rect class="cls-1" x="516.93" y="579.35" width="966.13" height="20"/><path class="cls-1" d="M291.12,795.85C273.69,813,251.19,821,226.75,821c-62.91,0-89.53-43.31-89.77-87.35-.25-44.29,28.55-89.29,89.77-89.29,23,0,44.77,8.71,62.19,25.89l-21.3,20.57c-11.13-10.89-26.13-16-40.89-16-40.89,0-58.56,30.49-58.32,58.8.24,28.07,16.46,57.34,58.32,57.34,14.76,0,31.46-6,42.59-17.18Z"/><path class="cls-1" d="M475.5,733.42c-.48,43.8-27.34,87.6-86.87,87.6s-87.11-42.83-87.11-87.35,28.55-89.29,87.11-89.29C447,644.38,476,689.14,475.5,733.42ZM333,734.15c.72,27.83,15.73,57.59,55.65,57.59s54.93-30,55.41-57.83c.49-28.55-15.48-60.5-55.41-60.5S332.25,705.6,333,734.15Z"/><path class="cls-1" d="M610.29,647.52h31.94V817.15H622.38v.24l-89-114.45V817.15H501.4V647.76h25.89l83,105Z"/><path class="cls-1" d="M715.31,676.8H661.59v-29H801v29H747.25V817.15H715.31Z"/><path class="cls-1" d="M970.6,817.15h-38l-49.36-56.62H852.51v56.62H820.57V647.52c26.86,0,53.72.24,80.58.24,39.92.25,61,26.86,61,56.14,0,23.23-10.65,46.7-42.84,53.24L970.6,815ZM852.51,677.53v54.2h48.64c20.32,0,29-13.55,29-27.1s-8.95-27.1-29-27.1Z"/><path class="cls-1" d="M1103.93,785.21h-88.57l-14.52,31.94h-34.6l76-169.39h34.85l76,169.39H1118.2Zm-44.29-101.87-31.45,72.1h62.91Z"/><path class="cls-1" d="M1306.71,795.85C1289.29,813,1266.78,821,1242.34,821c-62.91,0-89.53-43.31-89.77-87.35-.24-44.29,28.55-89.29,89.77-89.29,23,0,44.77,8.71,62.19,25.89l-21.29,20.57c-11.13-10.89-26.14-16-40.9-16-40.89,0-58.56,30.49-58.31,58.8.24,28.07,16.45,57.34,58.31,57.34,14.76,0,31.46-6,42.59-17.18Z"/><path class="cls-1" d="M1366,676.8h-53.72v-29h139.38v29h-53.72V817.15H1366Z"/><path class="cls-1" d="M1471.25,817.15V647.76H1503V817.15Z"/><path class="cls-1" d="M1644.27,647.52h31.94V817.15h-19.84v.24l-89-114.45V817.15h-31.94V647.76h25.89l83,105Z"/><path class="cls-1" d="M1831.32,689.14C1820,678.25,1803,672.2,1788.25,672.2c-36.3,0-58.32,27.59-58.32,62.44,0,27.82,16.22,56.62,58.32,56.62,13.31,0,24.92-2.91,38.23-13.55v-30h-43.31V719.15h72.59v71.38C1839.07,809.65,1818,821,1788.25,821c-63.64,0-89.53-41.86-89.53-86.38,0-47.68,29.76-91.71,89.53-91.71a89.44,89.44,0,0,1,62.91,25.89Z"/></svg>