<?xml version="1.0" encoding="UTF-8" standalone="no"?>
<!DOCTYPE svg PUBLIC "-//W3C//DTD SVG 1.1//EN" "http://www.w3.org/Graphics/SVG/1.1/DTD/svg11.dtd">
<svg width="100%" height="100%" viewBox="0 0 4084 1000" version="1.1" xmlns="http://www.w3.org/2000/svg" xmlns:xlink="http://www.w3.org/1999/xlink" xml:space="preserve" xmlns:serif="http://www.serif.com/" style="fill-rule:evenodd;clip-rule:evenodd;stroke-linejoin:round;stroke-miterlimit:2;">
    <g id="goshen-meadows-logo" transform="matrix(1.16686,0,0,0.5,0,0)">
        <rect x="0" y="0" width="3500" height="2000" style="fill:none;"/>
        <g transform="matrix(1,0,0,1,4.17723,2)">
            <g id="Logotype" transform="matrix(2.28967,0,0,5.34343,-2063.74,-4077.04)">
                <g transform="matrix(1,0,0,1,-438.693,52.7969)">
                    <g transform="matrix(333.333,0,0,333.333,1704.98,943.203)">
                        <path d="M0.385,-0.378L0.679,-0.378L0.679,-0.1C0.646,-0.065 0.604,-0.038 0.555,-0.018C0.505,0.002 0.455,0.012 0.405,0.012C0.34,0.012 0.28,-0.004 0.225,-0.037C0.169,-0.069 0.125,-0.112 0.092,-0.167C0.058,-0.222 0.042,-0.281 0.042,-0.344C0.042,-0.407 0.058,-0.466 0.092,-0.521C0.125,-0.576 0.169,-0.619 0.225,-0.651C0.28,-0.683 0.34,-0.699 0.405,-0.699C0.456,-0.699 0.506,-0.689 0.555,-0.669C0.604,-0.649 0.646,-0.622 0.679,-0.588L0.59,-0.505C0.569,-0.53 0.541,-0.549 0.507,-0.564C0.473,-0.578 0.439,-0.585 0.405,-0.585C0.363,-0.585 0.324,-0.574 0.288,-0.552C0.251,-0.53 0.222,-0.501 0.201,-0.464C0.18,-0.427 0.169,-0.387 0.169,-0.344C0.169,-0.301 0.18,-0.261 0.201,-0.224C0.222,-0.187 0.251,-0.157 0.288,-0.135C0.324,-0.113 0.363,-0.102 0.405,-0.102C0.431,-0.102 0.458,-0.106 0.485,-0.115C0.511,-0.124 0.536,-0.136 0.557,-0.152L0.557,-0.276L0.385,-0.276L0.385,-0.378Z" style="fill:rgb(13,40,64);fill-rule:nonzero;"/>
                    </g>
                    <g transform="matrix(333.333,0,0,333.333,1948.31,943.203)">
                        <path d="M0.306,0.012C0.256,0.012 0.21,-0 0.167,-0.025C0.124,-0.049 0.091,-0.082 0.066,-0.124C0.041,-0.165 0.028,-0.21 0.028,-0.259C0.028,-0.308 0.041,-0.353 0.066,-0.394C0.091,-0.435 0.124,-0.468 0.167,-0.493C0.21,-0.517 0.256,-0.529 0.306,-0.529C0.356,-0.529 0.402,-0.517 0.445,-0.493C0.487,-0.468 0.52,-0.435 0.545,-0.394C0.57,-0.353 0.582,-0.308 0.582,-0.259C0.582,-0.21 0.57,-0.165 0.545,-0.124C0.52,-0.082 0.487,-0.049 0.445,-0.025C0.402,-0 0.356,0.012 0.306,0.012ZM0.306,-0.092C0.334,-0.092 0.36,-0.099 0.384,-0.115C0.408,-0.13 0.427,-0.15 0.441,-0.176C0.455,-0.201 0.462,-0.229 0.462,-0.259C0.462,-0.289 0.455,-0.317 0.441,-0.342C0.427,-0.367 0.408,-0.388 0.384,-0.403C0.36,-0.418 0.334,-0.425 0.306,-0.425C0.277,-0.425 0.251,-0.418 0.227,-0.403C0.203,-0.388 0.184,-0.367 0.17,-0.342C0.155,-0.317 0.148,-0.289 0.148,-0.259C0.148,-0.229 0.155,-0.201 0.17,-0.176C0.184,-0.15 0.203,-0.13 0.227,-0.115C0.251,-0.099 0.277,-0.092 0.306,-0.092Z" style="fill:rgb(13,40,64);fill-rule:nonzero;"/>
                    </g>
                    <g transform="matrix(333.333,0,0,333.333,2141.31,943.203)">
                        <path d="M0.251,0.012C0.211,0.012 0.171,0.005 0.131,-0.009C0.09,-0.022 0.055,-0.041 0.024,-0.065L0.076,-0.145C0.103,-0.125 0.133,-0.11 0.164,-0.099C0.195,-0.088 0.224,-0.082 0.253,-0.082C0.28,-0.082 0.302,-0.087 0.318,-0.098C0.333,-0.109 0.341,-0.123 0.341,-0.141C0.341,-0.16 0.332,-0.174 0.315,-0.183C0.297,-0.192 0.269,-0.202 0.231,-0.212C0.189,-0.223 0.155,-0.235 0.13,-0.247C0.104,-0.258 0.084,-0.274 0.07,-0.293C0.055,-0.312 0.048,-0.337 0.048,-0.367C0.048,-0.399 0.056,-0.427 0.073,-0.452C0.089,-0.476 0.112,-0.495 0.142,-0.509C0.171,-0.522 0.205,-0.529 0.243,-0.529C0.277,-0.529 0.311,-0.524 0.346,-0.513C0.38,-0.501 0.411,-0.486 0.44,-0.467L0.393,-0.385C0.368,-0.401 0.342,-0.413 0.316,-0.423C0.29,-0.432 0.266,-0.436 0.243,-0.436C0.219,-0.436 0.199,-0.431 0.184,-0.421C0.169,-0.41 0.161,-0.396 0.161,-0.379C0.161,-0.368 0.165,-0.359 0.172,-0.352C0.179,-0.345 0.19,-0.339 0.203,-0.335C0.216,-0.33 0.239,-0.322 0.272,-0.312C0.31,-0.301 0.341,-0.291 0.366,-0.28C0.391,-0.269 0.412,-0.254 0.429,-0.233C0.446,-0.212 0.454,-0.185 0.454,-0.152C0.454,-0.103 0.435,-0.063 0.398,-0.033C0.361,-0.003 0.312,0.012 0.251,0.012Z" style="fill:rgb(13,40,64);fill-rule:nonzero;"/>
                    </g>
                    <g transform="matrix(333.333,0,0,333.333,2301.98,943.203)">
                        <path d="M0.344,-0.529C0.381,-0.529 0.415,-0.521 0.444,-0.504C0.472,-0.487 0.495,-0.463 0.512,-0.433C0.528,-0.402 0.536,-0.368 0.536,-0.329L0.536,-0L0.417,-0L0.417,-0.305C0.417,-0.34 0.407,-0.369 0.387,-0.392C0.367,-0.414 0.341,-0.425 0.309,-0.425C0.274,-0.425 0.244,-0.414 0.22,-0.393C0.195,-0.371 0.183,-0.344 0.183,-0.313L0.183,-0L0.061,-0L0.061,-0.699L0.183,-0.699L0.183,-0.447C0.199,-0.472 0.221,-0.492 0.25,-0.507C0.279,-0.522 0.31,-0.529 0.344,-0.529Z" style="fill:rgb(13,40,64);fill-rule:nonzero;"/>
                    </g>
                    <g transform="matrix(333.333,0,0,333.333,2496.64,943.203)">
                        <path d="M0.297,-0.086C0.324,-0.086 0.35,-0.091 0.377,-0.101C0.403,-0.111 0.424,-0.124 0.441,-0.14L0.511,-0.068C0.489,-0.045 0.458,-0.025 0.418,-0.011C0.378,0.005 0.339,0.012 0.301,0.012C0.252,0.012 0.206,0 0.165,-0.023C0.124,-0.046 0.091,-0.079 0.067,-0.12C0.042,-0.161 0.03,-0.208 0.03,-0.26C0.03,-0.311 0.042,-0.357 0.065,-0.398C0.088,-0.439 0.12,-0.471 0.161,-0.494C0.201,-0.517 0.245,-0.529 0.294,-0.529C0.373,-0.529 0.436,-0.502 0.481,-0.447C0.526,-0.392 0.548,-0.318 0.548,-0.223L0.148,-0.223C0.155,-0.182 0.171,-0.149 0.198,-0.124C0.225,-0.098 0.258,-0.086 0.297,-0.086ZM0.296,-0.431C0.259,-0.431 0.228,-0.42 0.201,-0.397C0.174,-0.374 0.157,-0.343 0.149,-0.304L0.43,-0.304C0.424,-0.342 0.409,-0.373 0.387,-0.396C0.364,-0.419 0.333,-0.431 0.296,-0.431Z" style="fill:rgb(13,40,64);fill-rule:nonzero;"/>
                    </g>
                    <g transform="matrix(333.333,0,0,333.333,2687.64,943.203)">
                        <path d="M0.339,-0.529C0.376,-0.529 0.41,-0.521 0.439,-0.504C0.468,-0.487 0.491,-0.463 0.508,-0.433C0.524,-0.402 0.532,-0.368 0.532,-0.329L0.532,-0L0.413,-0L0.413,-0.305C0.413,-0.34 0.403,-0.369 0.383,-0.392C0.362,-0.414 0.336,-0.425 0.304,-0.425C0.269,-0.425 0.239,-0.414 0.215,-0.393C0.191,-0.371 0.179,-0.344 0.179,-0.313L0.179,-0L0.057,-0L0.057,-0.517L0.179,-0.517L0.179,-0.449C0.195,-0.474 0.217,-0.493 0.246,-0.508C0.274,-0.522 0.305,-0.529 0.339,-0.529Z" style="fill:rgb(13,40,64);fill-rule:nonzero;"/>
                    </g>
                </g>
                <g transform="matrix(1,0,0,1,-411.093,191.74)">
                    <g transform="matrix(133.333,0,0,133.333,1704.98,943.203)">
                        <path d="M0.078,-0.687L0.156,-0.687L0.411,-0.208L0.666,-0.687L0.744,-0.687L0.744,-0L0.666,-0L0.666,-0.519L0.411,-0.04L0.156,-0.519L0.156,-0L0.078,-0L0.078,-0.687Z" style="fill:rgb(24,73,111);fill-rule:nonzero;"/>
                    </g>
                    <g transform="matrix(133.333,0,0,133.333,1814.58,943.203)">
                        <path d="M0.297,-0.055C0.328,-0.055 0.359,-0.061 0.39,-0.073C0.421,-0.085 0.444,-0.1 0.46,-0.117L0.506,-0.068C0.484,-0.044 0.453,-0.025 0.414,-0.01C0.374,0.005 0.335,0.012 0.298,0.012C0.252,0.012 0.209,0 0.169,-0.023C0.129,-0.046 0.097,-0.079 0.073,-0.121C0.048,-0.162 0.036,-0.209 0.036,-0.26C0.036,-0.31 0.048,-0.356 0.071,-0.397C0.093,-0.438 0.125,-0.471 0.164,-0.494C0.203,-0.517 0.245,-0.529 0.291,-0.529C0.368,-0.529 0.429,-0.502 0.472,-0.448C0.515,-0.394 0.536,-0.321 0.536,-0.23L0.113,-0.23C0.118,-0.179 0.138,-0.137 0.172,-0.104C0.205,-0.071 0.247,-0.055 0.297,-0.055ZM0.294,-0.462C0.247,-0.462 0.207,-0.447 0.174,-0.417C0.141,-0.386 0.121,-0.346 0.114,-0.297L0.462,-0.297C0.457,-0.346 0.44,-0.386 0.411,-0.417C0.382,-0.447 0.343,-0.462 0.294,-0.462Z" style="fill:rgb(24,73,111);fill-rule:nonzero;"/>
                    </g>
                    <g transform="matrix(133.333,0,0,133.333,1890.31,943.203)">
                        <path d="M0.269,-0.529C0.338,-0.529 0.39,-0.51 0.426,-0.471C0.461,-0.432 0.479,-0.38 0.479,-0.315L0.479,-0L0.404,-0L0.404,-0.081C0.386,-0.052 0.36,-0.029 0.327,-0.013C0.293,0.004 0.258,0.012 0.222,0.012C0.167,0.012 0.121,-0.003 0.086,-0.033C0.051,-0.063 0.033,-0.103 0.033,-0.153C0.033,-0.186 0.042,-0.216 0.061,-0.243C0.079,-0.269 0.103,-0.289 0.135,-0.304C0.166,-0.318 0.199,-0.325 0.236,-0.325C0.288,-0.325 0.344,-0.315 0.404,-0.296L0.404,-0.315C0.404,-0.357 0.393,-0.393 0.372,-0.422C0.351,-0.451 0.315,-0.465 0.264,-0.465C0.241,-0.465 0.217,-0.461 0.193,-0.453C0.168,-0.444 0.142,-0.433 0.113,-0.418L0.083,-0.479C0.15,-0.512 0.212,-0.529 0.269,-0.529ZM0.235,-0.054C0.272,-0.054 0.308,-0.064 0.341,-0.083C0.374,-0.101 0.395,-0.128 0.404,-0.162L0.404,-0.241C0.353,-0.255 0.301,-0.262 0.248,-0.262C0.209,-0.262 0.175,-0.252 0.148,-0.232C0.12,-0.212 0.106,-0.187 0.106,-0.156C0.106,-0.125 0.118,-0.1 0.143,-0.082C0.167,-0.063 0.198,-0.054 0.235,-0.054Z" style="fill:rgb(24,73,111);fill-rule:nonzero;"/>
                    </g>
                    <g transform="matrix(133.333,0,0,133.333,1960.84,943.203)">
                        <path d="M0.538,-0.699L0.538,-0L0.463,-0L0.463,-0.097C0.443,-0.062 0.417,-0.035 0.385,-0.017C0.352,0.003 0.316,0.012 0.275,0.012C0.23,0.012 0.19,0.001 0.154,-0.023C0.117,-0.046 0.089,-0.078 0.068,-0.119C0.047,-0.16 0.037,-0.207 0.037,-0.259C0.037,-0.311 0.047,-0.358 0.068,-0.399C0.089,-0.44 0.117,-0.472 0.154,-0.495C0.19,-0.518 0.23,-0.529 0.275,-0.529C0.316,-0.529 0.352,-0.52 0.385,-0.501C0.417,-0.482 0.443,-0.455 0.463,-0.42L0.463,-0.699L0.538,-0.699ZM0.289,-0.055C0.322,-0.055 0.352,-0.064 0.379,-0.081C0.406,-0.098 0.426,-0.123 0.441,-0.154C0.456,-0.185 0.463,-0.22 0.463,-0.259C0.463,-0.298 0.456,-0.333 0.441,-0.364C0.426,-0.395 0.406,-0.419 0.379,-0.436C0.352,-0.453 0.322,-0.462 0.289,-0.462C0.256,-0.462 0.226,-0.453 0.2,-0.436C0.173,-0.419 0.153,-0.395 0.138,-0.364C0.123,-0.333 0.116,-0.298 0.116,-0.259C0.116,-0.22 0.123,-0.185 0.138,-0.154C0.153,-0.123 0.173,-0.098 0.2,-0.081C0.226,-0.064 0.256,-0.055 0.289,-0.055Z" style="fill:rgb(24,73,111);fill-rule:nonzero;"/>
                    </g>
                    <g transform="matrix(133.333,0,0,133.333,2040.44,943.203)">
                        <path d="M0.302,0.012C0.254,0.012 0.21,-0 0.169,-0.025C0.128,-0.049 0.095,-0.082 0.071,-0.124C0.047,-0.165 0.035,-0.21 0.035,-0.259C0.035,-0.308 0.047,-0.353 0.071,-0.394C0.095,-0.435 0.128,-0.468 0.169,-0.493C0.21,-0.517 0.254,-0.529 0.302,-0.529C0.35,-0.529 0.394,-0.517 0.435,-0.493C0.476,-0.468 0.508,-0.435 0.532,-0.394C0.556,-0.353 0.568,-0.308 0.568,-0.259C0.568,-0.21 0.556,-0.165 0.532,-0.124C0.508,-0.082 0.476,-0.049 0.435,-0.025C0.394,-0 0.35,0.012 0.302,0.012ZM0.302,-0.055C0.336,-0.055 0.367,-0.064 0.396,-0.083C0.425,-0.101 0.448,-0.126 0.465,-0.157C0.482,-0.188 0.49,-0.222 0.49,-0.259C0.49,-0.296 0.482,-0.329 0.465,-0.361C0.448,-0.392 0.425,-0.416 0.396,-0.435C0.367,-0.453 0.336,-0.462 0.302,-0.462C0.268,-0.462 0.237,-0.453 0.208,-0.435C0.179,-0.416 0.156,-0.392 0.139,-0.361C0.122,-0.329 0.113,-0.296 0.113,-0.259C0.113,-0.222 0.122,-0.188 0.139,-0.157C0.156,-0.126 0.179,-0.101 0.208,-0.083C0.237,-0.064 0.268,-0.055 0.302,-0.055Z" style="fill:rgb(24,73,111);fill-rule:nonzero;"/>
                    </g>
                    <g transform="matrix(133.333,0,0,133.333,2116.84,943.203)">
                        <path d="M0.029,-0.517L0.109,-0.517L0.238,-0.1L0.379,-0.517L0.444,-0.517L0.585,-0.1L0.714,-0.517L0.794,-0.517L0.62,-0L0.549,-0L0.412,-0.413L0.273,-0L0.202,-0L0.029,-0.517Z" style="fill:rgb(24,73,111);fill-rule:nonzero;"/>
                    </g>
                    <g transform="matrix(133.333,0,0,133.333,2221.24,943.203)">
                        <path d="M0.243,0.012C0.206,0.012 0.169,0.005 0.132,-0.008C0.094,-0.021 0.06,-0.04 0.029,-0.065L0.068,-0.12C0.127,-0.077 0.186,-0.055 0.243,-0.055C0.277,-0.055 0.305,-0.062 0.326,-0.077C0.346,-0.092 0.357,-0.111 0.357,-0.136C0.357,-0.153 0.351,-0.168 0.34,-0.18C0.329,-0.191 0.315,-0.2 0.298,-0.207C0.281,-0.214 0.257,-0.221 0.227,-0.23C0.164,-0.248 0.119,-0.268 0.093,-0.29C0.067,-0.311 0.054,-0.34 0.054,-0.377C0.054,-0.423 0.071,-0.46 0.105,-0.488C0.139,-0.515 0.182,-0.529 0.235,-0.529C0.266,-0.529 0.298,-0.524 0.33,-0.514C0.362,-0.503 0.392,-0.489 0.42,-0.471L0.384,-0.413C0.333,-0.446 0.283,-0.462 0.235,-0.462C0.204,-0.462 0.179,-0.455 0.159,-0.442C0.139,-0.429 0.129,-0.41 0.129,-0.386C0.129,-0.371 0.133,-0.359 0.142,-0.35C0.151,-0.341 0.164,-0.332 0.181,-0.325C0.198,-0.318 0.226,-0.308 0.263,-0.296C0.3,-0.285 0.329,-0.274 0.352,-0.263C0.375,-0.252 0.394,-0.238 0.409,-0.219C0.424,-0.2 0.432,-0.175 0.432,-0.144C0.432,-0.097 0.414,-0.06 0.379,-0.031C0.343,-0.002 0.298,0.012 0.243,0.012Z" style="fill:rgb(24,73,111);fill-rule:nonzero;"/>
                    </g>
                </g>
            </g>
            <g id="Logomark" transform="matrix(0.342281,0,0,1.39788,-269.165,-382.477)">
                <g transform="matrix(3.15634,0,0,1.47381,173.044,-269.31)">
                    <clipPath id="_clip1">
                        <path d="M804.911,908.242L804.911,1305.91C804.911,1312.34 800.646,1317.56 795.392,1317.56L528.516,1317.56C523.262,1317.56 518.997,1312.34 518.997,1305.91L518.997,908.242C518.997,901.812 523.262,896.592 528.516,896.592L795.392,896.592C800.646,896.592 804.911,901.812 804.911,908.242Z"/>
                    </clipPath>
                    <g clip-path="url(#_clip1)">
                        <g transform="matrix(1,0,0,1,-5424.42,-6831.17)">
                            <rect x="5943.42" y="7727.76" width="285.914" height="420.969" style="fill:rgb(88,60,37);"/>
                        </g>
                        <g transform="matrix(1,0,0,1,-5424.42,-6831.17)">
                            <rect x="5943.42" y="7727.76" width="142.957" height="420.969" style="fill:rgb(74,51,31);"/>
                        </g>
                    </g>
                </g>
                <g transform="matrix(2.24147,0,0,2.71013,-11577.1,-20263.8)">
                    <path d="M6375.59,7604.23L6375.59,7706.47C6375.59,7709.96 6369.58,7712.8 6362.19,7712.8L5988.34,7712.8C5980.94,7712.8 5974.93,7709.96 5974.93,7706.47L5974.93,7604.23C5974.93,7600.74 5980.94,7597.9 5988.34,7597.9L6362.19,7597.9C6369.58,7597.9 6375.59,7600.74 6375.59,7604.23Z" style="fill:rgb(117,151,104);"/>
                </g>
                <g transform="matrix(1.63758,0,0,2.71013,-8998.05,-20263.8)">
                    <path d="M6375.59,7604.23L6375.59,7706.47C6375.59,7709.96 6367.37,7712.8 6357.24,7712.8L5993.28,7712.8C5983.15,7712.8 5974.93,7709.96 5974.93,7706.47L5974.93,7604.23C5974.93,7600.74 5983.15,7597.9 5993.28,7597.9L6357.24,7597.9C6367.37,7597.9 6375.59,7600.74 6375.59,7604.23Z" style="fill:rgb(117,151,104);"/>
                </g>
                <g transform="matrix(1.63758,0,0,7.12177,-8998.05,-53256.3)">
                    <path d="M6375.59,7600.31L6375.59,7710.39C6375.59,7711.72 6367.37,7712.8 6357.24,7712.8L5993.28,7712.8C5983.15,7712.8 5974.93,7711.72 5974.93,7710.39L5974.93,7600.31C5974.93,7598.98 5983.15,7597.9 5993.28,7597.9L6357.24,7597.9C6367.37,7597.9 6375.59,7598.98 6375.59,7600.31Z" style="fill:rgb(117,151,104);"/>
                </g>
                <g transform="matrix(2.25239,0,0,1.11173,-11646.7,-7592.58)">
                    <path d="M6375.59,7613.34L6375.59,7697.36C6375.59,7705.88 6369.61,7712.8 6362.25,7712.8L5988.27,7712.8C5980.91,7712.8 5974.93,7705.88 5974.93,7697.36L5974.93,7613.34C5974.93,7604.82 5980.91,7597.9 5988.27,7597.9L6362.25,7597.9C6369.61,7597.9 6375.59,7604.82 6375.59,7613.34Z" style="fill:rgb(229,201,118);"/>
                </g>
                <g transform="matrix(2.23086,0,0,1.49133,-988.182,-413.345)">
                    <path d="M1137.19,818.458C1137.19,815.914 1136.01,813.474 1133.9,811.674C1131.8,809.875 1128.94,808.865 1125.97,808.865C1079.53,808.865 902.506,808.865 852.096,808.865C848.524,808.865 845.098,807.652 842.572,805.493C840.046,803.334 838.627,800.405 838.627,797.352C838.627,786.35 838.627,769.856 838.627,758.855C838.627,755.801 840.046,752.873 842.572,750.714C845.098,748.555 848.524,747.342 852.096,747.342C902.506,747.342 1079.53,747.342 1125.97,747.342C1132.16,747.342 1137.19,743.047 1137.19,737.748C1137.19,702.882 1137.19,582.956 1137.19,545.148C1137.19,538.79 1143.22,533.636 1150.66,533.636L1195.7,533.636C1203.13,533.636 1209.16,538.79 1209.16,545.148C1209.16,582.956 1209.16,702.882 1209.16,737.748C1209.16,743.047 1214.19,747.342 1220.39,747.342C1277.99,747.342 1540.12,747.342 1602.75,747.342C1610.18,747.342 1616.21,752.496 1616.21,758.855C1616.21,769.856 1616.21,786.35 1616.21,797.352C1616.21,803.71 1610.18,808.865 1602.75,808.865C1540.12,808.865 1277.99,808.865 1220.39,808.865C1217.41,808.865 1214.56,809.875 1212.45,811.674C1210.35,813.474 1209.16,815.914 1209.16,818.458C1209.16,884.892 1209.16,1276 1209.16,1348.36C1209.16,1351.42 1207.75,1354.35 1205.22,1356.5C1202.69,1358.66 1199.27,1359.88 1195.7,1359.88C1182.83,1359.88 1163.53,1359.88 1150.66,1359.88C1147.09,1359.88 1143.66,1358.66 1141.13,1356.5C1138.61,1354.35 1137.19,1351.42 1137.19,1348.36C1137.19,1276 1137.19,884.892 1137.19,818.458Z" style="fill:rgb(24,73,111);"/>
                </g>
            </g>
        </g>
    </g>
</svg>
